<?xml version="1.0" encoding="utf-8"?>
<!DOCTYPE svg PUBLIC "-//W3C//DTD SVG 1.1//EN" "http://www.w3.org/Graphics/SVG/1.1/DTD/svg11.dtd">
<svg version="1.1" xmlns="http://www.w3.org/2000/svg" xmlns:xlink="http://www.w3.org/1999/xlink" x="0px" y="0px"
	 viewBox="0 0 600 600" enable-background="new 0 0 600 600" xml:space="preserve">
	 <!--

		The logos for Vive, Medium, and Twitter are the property of their respective copyright holders.
		All other content Copyright © 2016, 2017 Stewart Smith. See LICENSE for details.

	 -->




	 <!--  Top matter  -->

	<symbol viewBox="0 0 600 600" id="day-and-night">
		<title>Day &amp; Night</title>
		<path d="M232.14,354.53h19.859c14.939,0,24.419,8.219,24.419,22.318c0,13.68-8.58,23.039-24.719,23.039H232.14V354.53z
		 M252.659,390.229c6.959,0,11.58-4.2,11.58-13.08c0-8.999-4.86-12.959-11.7-12.959h-8.64v26.039H252.659z"/>
		<path d="M290.52,399.888H279.12l17.159-45.357h14.039l17.279,45.357h-12.419l-3-8.459H293.52L290.52,399.888z M302.819,365.27
			l-6.18,17.399h12.359L302.819,365.27z"/>
		<path d="M325.199,354.53h13.38l10.86,16.679l10.199-16.679h12.359l-17.219,26.398v18.959h-11.76v-19.079L325.199,354.53z"/>
		<path d="M208.381,454.71h6.18l23.939,38.458V454.71h4.92v45.178h-6.66L213.3,462.21v37.678h-4.919V454.71z"/>
		<path d="M255.121,454.71h5.22v45.178h-5.22V454.71z"/>
		<path d="M270.541,477.329c0-13.199,8.04-23.279,20.339-23.279c8.82,0,14.7,3.72,18.06,12.42l-4.68,1.8
			c-2.281-6.72-6.181-9.899-13.26-9.899c-9.6,0-15.119,7.859-15.119,18.898c0,11.16,5.399,18.779,15.179,18.779
			c8.04,0,14.22-6.239,14.22-15.359v-0.66h-12.24v-4.379h17.339v24.238h-3.359l-1.021-8.399c-3.181,5.76-8.1,8.939-15.06,8.939
			C278.16,500.428,270.541,490.528,270.541,477.329z"/>
		<path d="M348.179,454.71h5.22v45.178h-5.22v-20.159h-22.739v20.159h-5.219V454.71h5.219v20.519h22.739V454.71z"/>
		<path d="M375.479,459.09H361.14v-4.38h33.898v4.38h-14.339v40.798h-5.221V459.09z"/>
		<path d="M200,200c0-55.228,44.772-100,100-100s100,44.772,100,100s-44.772,100-100,100S200,255.228,200,200z M300,290
			c49.706,0,90-40.294,90-90s-40.294-90-90-90s-90,40.294-90,90S250.294,290,300,290z"/>
		<path d="M300,300c-55.228,0-100-44.772-100-100s44.772-100,100-100"/>
		<rect x="180" y="422.5" width="240" height="10"/>
	</symbol>


	<!-- symbol viewBox="100 240 400 90" id="vr-goggles" -->
	<symbol viewBox="100 100 400 300" id="vr-goggles">
		<title>VR goggles</title>
		<path d="M474.191,172.928H124.613c-12.955,0-23.916,11.36-23.916,25.311V406.71c0,13.951,10.962,25.311,24.514,25.311h95.068
			c10.762,0,19.93-6.378,23.119-15.745l27.703-69.158c4.783-11.56,15.944-19.731,28.899-19.731c12.955,0,24.116,8.171,28.899,19.731
			l27.703,69.158c3.787,9.367,12.357,15.745,22.123,15.745h95.466c14.151,0,25.112-11.36,25.112-25.311V198.239
			C499.303,184.288,488.341,172.928,474.191,172.928 M204.733,343.93c-24.315,0-44.245-20.528-44.245-45.64
			c0-25.71,19.93-45.64,44.245-45.64s44.046,19.93,44.046,45.64C248.779,323.402,229.048,343.93,204.733,343.93 M395.267,343.93
			c-24.315,0-44.046-20.528-44.046-45.64c0-25.112,19.731-45.64,44.046-45.64c24.315,0,44.245,20.528,44.245,45.64
			C439.512,323.402,419.582,343.93,395.267,343.93z"/>
	</symbol>




	<!--  How to  -->

	<symbol viewBox="0 100 600 400" id="drag-main">
		<title>Vive controller</title>
		<line x1="-55.5" y1="431" x2="29.5" y2="398.5"/>
		<polyline points="24,385 26,396.5 36,401.5 51.5,402.5 70.5,411.5"/>
		<path d="M138.5,429.75c0,0-4.25,3-19,11.25s-28.689,12.332-36.75,9.5
			c-9.25-3.25-13.25-13-13.25-13s-11.25-18.25,12.25-40.25C117.502,363.78,171.5,321,171.5,321s47.505-40.985,87.688-72.259"/>
		<path d="M483,257.875L447,241c0,0-18.25-9.25-32.5-7
			c-20.889,3.298-31.5,16.5-31.5,16.5L363.5,276l-10.5,9l-34,25l-25.5,21l-4.214,2.662"/>
		<path d="M333,194c17.75-11,39.25-25.75,86-43c24-6,83,23,83,23
			s68.5,32,74,45.5s13.125,45.625,13,49s-1.25,6.5-3,7s-17.655,2.263-17.655,2.263"/>
		<path d="M588,273.25c-2.625,4.125-18.625-13.375-19.5-9.25s0.625,22,0,24
			s-5,6.5-9.5,7c-3.637,0.404-14.75-3.25-27.25-9.25s-27.417-14.083-29.917-22.25c-1.482-4.84-4.083-33-13.333-41.5
			c-4.832-4.44-21.5-12.5-21.5-12.5s-24.997-10-36.75-10c-12.75,0-30.5,6.5-42.75,13c-14.037,7.448-43,28.5-43,28.5l-102,77
			l-52.567,39.575"/>
		<path d="M478.5,238.5c1.667,4.167,4.167,12.333,4.5,16.5
			c0.333,4.167-0.5,21,6.667,26.333C496.833,286.667,510,293,510,293s13.625,8.125,22.375,10.375s24.213-3.591,30-7.375
			c6.5-4.25,6.125-8,6.125-8"/>
		<path d="M192,258l17-7c0,0,16.5-3.5,31-2s29.5-1.5,34-2s6.5-0.75,14-3
			s39.25-24,44-34c2.035-4.285,3.5-14.5,1-16s-3.917-3.25-6-3s-29,5-29,5l-16,3l-10,1c0,0-10-2-14-3s-17-1-17-1s-25,0.5-29,0
			s-18-3-18-3s-16-3.5-21-4s-26,8-26,8s-84,34.5-88,37s-14.5,9-16,13S8,258.5,4,259s-52,9.5-52,9.5"/>
		<path d="M298.5,337.5c-1.5-1.75-10.5-5-18-6.5c-3.101-0.62-14-0.5-14-0.5
			s-13.25,0.25-21.667,3c-5.072,1.657-13.167,12.167-14.667,16.5s-2.333,14.5-1.167,16.5s5.5,6,9,8s28.25,6,28.25,6
			s24.25,5.5,30.75,3s9-6.5,9-6.5s15.75-16,19.5-25.75S328,329.5,326,327s-8-9.5-8-9.5l-3.5-3.5"/>
		<path d="M272,381.5c0,0-2.5,15-4.5,19s-12,8-12,8L237,412c0,0-10,1-14,1
			s-26.5-3.5-26.5-3.5L166,401c0,0-7.5-1.5-15-7s-4-19-4-19s2.527-6.478,5-9.5c4.5-5.5,13-8,15.5-8.5s13.5-1,13.5-1l19.5,4l17,4
			l11,0.5"/>
		<path d="M223,413c0,0-4.5,12-6,16s-15,9-19,10s-18,0-18,0l-22.5-3.5
			c0,0-12-2.5-16.5-4.5s-15.25-10.75-15.25-10.75s-5-7-5.75-12.75c-0.471-3.609,1-12.5,4-15.5s8-6,11-6.5s11.5-0.5,11.5-0.5"/>
		<path d="M194.5,291.5c0,0-18.5,26.5-27,32s-28,10.5-34,12s-38,4-38,4"/>
		<path d="M120.125,408.5l-11.5,9.125c-14.875,12-35,22.875-40.125,17.375"/>
		<!-- <path fill="#00FF00" d="M393.667,241.667c0,0,19.108,12.283,28.458,11.458
			C430.625,252.375,440,238,440,238"/> -->
	</symbol>
	<symbol viewBox="0 100 600 400" id="drag-released">
		<title>One Vive controller with trigger released</title>
		<path d="M369.167,268.5c0,0,12.5,2.833,15.333,4
			s11.167,6.167,14.5,8s18,9.167,21.5,11.5s5.833,8,6.5,10s0.333,8.333-0.5,10.5s-4.167,6.833-6,8.5s-5.833,4.333-9.5,4
			s-11.667-3.333-13.5-4s-15.5-4-18-5.5s-10.5-4.833-12.5-6s-7-3.5-7-3.5"/>
		<polygon fill="#FF3300" points="361,278.333 360.5,312 355.5,314.5 337.5,296.167"/>
	</symbol>
	<symbol viewBox="0 100 600 400" id="drag-pressed">
		<title>One Vive controller with trigger pressed</title>
		<polygon fill="#FF3300" points="338,311.5 328,302.5 345.667,290 341.5,304"/>
		<path d="M364.75,274.375c0,0,4.583,8.292,5.75,10.625
			s3.167,12,2.5,14.5s-5.667,14.167-7.5,16s-7.833,6.5-11,7s-10.833-2.167-12-3s-4.167-5.5-4.5-8s3.5-7.5,3.5-7.5
			c0.213-2.265,2.451-8.63,4-13.625"/>
	</symbol>




	<!--  Requirements  -->


	<symbol viewBox="0 0 600 600" id="vive-hmd">
		<title>Vive HMD</title>
		<path d="M165.764,99.052"/>
		<path d="M378.301,148.467l7.97,3.188
			C408,162,430.604,177.539,440.469,210.103S440.667,292,436,303c-4.739,11.17-30.069,27.717-30.069,27.717
			s-7.387,20.853-15.409,30.818c-8.022,9.965-15.3,15.167-28.161,18.066C349.5,382.5,305.667,388.333,254,372.667
			C202.333,357,127.918,346.814,102.003,298.306c-10.67-19.972-13.284-58.448-13.284-58.448s-2.531-29.2-2.125-45.696
			C87,169.333,93.221,140.662,98,133s19-22.333,30.333-25.333c11.333-3,20.693-5.042,33.18-7.021s68.543,4.782,68.543,4.782
			s75.255,11.246,89.266,15.409c14.011,4.163,32.943,12.752,32.943,12.752s18.401,7.078,29.734,18.078s22,32.667,22,32.667"/>
		<path d="M328,123.875c0,0-0.062-1.562,39.143,3.869
			C426.5,135.25,441.5,121,473.25,136c31.962,15.1,39.776,40.133,42.138,45.941c2.362,5.809,2.117,76.575,0.531,84.484
			c-1.586,7.908-8.086,39.575-35.253,57.575c-27.167,18-76.833,12.167-76.833,12.167"/>
		<path d="M175,100.5c0,0-17.975,13.048-19.863,17.149
			c-1.887,4.101-4.424,9.092,1.594,16.472s26.019,15.13,46.019,18.13s52.876,3.872,63.438-2.189
			c10.562-6.061,16.508-15.197,21.785-21.254c5.277-6.057,17.527-11.057,17.527-11.057"/>
		<path d="M202.75,152.25c0,0-10.75,45.75-11,78.5s5.75,81,5.75,81"/>
		<ellipse transform="matrix(0.9963 0.0858 -0.0858 0.9963 22.646 -40.4181)" cx="481.648" cy="243.312" rx="27.364" ry="41.71"/>
		<ellipse transform="matrix(0.9963 0.0858 -0.0858 0.9963 22.7839 -40.769)" cx="485.792" cy="244.735" rx="20.988" ry="35.866"/>
		<path d="M206.75,103c-4.127,0-20.091,4.021-14.125,7.625
			c6,3.625,60.872,11.007,68.375,10.875c7.125-0.125,15-4.125,21-7.875"/>
		<path d="M194.375,311.25c11.25,0,22.625,13.25,29.125,25.375
			c5.074,9.464,9.799,25.789-7,22.875c-12.25-2.125-24-11.75-28.5-19.875C183.025,330.642,177.873,311.25,194.375,311.25z"/>
		<path d="M194.375,318c9.217,0.784,19.829,10.598,23.25,16.375
			c5.625,9.5,9.89,20.962,1.75,22.125c-5.25,0.75-16.117-1.671-23.75-11C186.625,334.5,182.625,317,194.375,318z"/>
		<path d="M218.125,359.875c0,0,2.375,3.625,4.875,4.375"/>
	</symbol>
	

	<symbol viewBox="0 0 600 600" id="browser">
		<title>WebVR Browser</title>
		<polyline points="200,130 210,100 290,100 300,130 	"/>
		<polyline points="300,130 310,100 390,100 400,130 	"/>
		<path d="M500,350c0,11.046-8.954,20-20,20H120
			c-11.046,0-20-8.954-20-20V130l10-30h80l10,30h300V350z"/>
		<line x1="100" y1="160" x2="500" y2="160"/>
		<line x1="475" y1="100" x2="495" y2="120"/>
		<line x1="495" y1="100" x2="475" y2="120"/>
		<polyline stroke-miterlimit="2" points="160,230 180,290 200,230 220,290 240,230"/>
		<polyline stroke-miterlimit="2" points="260,230 280,290 300,230 320,290 340,230"/>
		<polyline stroke-miterlimit="2" points="360,230 380,290 400,230 420,290 440,230"/>
	</symbol>


	<symbol viewBox="0 0 600 600" id="wonder">
		<title>Wonder</title>
		<path d="M299.154,135.813C303,135.5,310.5,96,373,98
		c40.402,1.293,85,29.659,85,94.333c0,90-116,142.333-158.846,179.072C257,340.333,138.333,277,137.333,198.333
		c-0.552-43.463,24.667-98,83.333-98.667C288.33,98.898,287,136.333,299.154,135.813z"/>
	</symbol>




	<!--  Social  -->

	<symbol viewBox="0 0 600 600" id="twitter">
		<title>Twitter</title>
		<path d="M222.226,483.89c164.3,0,254.165-136.121,254.165-254.165c0-3.866,0-7.715-0.261-11.546
			c17.482-12.646,32.573-28.303,44.567-46.239c-16.303,7.224-33.598,11.962-51.307,14.055c18.648-11.164,32.604-28.723,39.272-49.408
			c-17.535,10.405-36.719,17.738-56.723,21.683c-33.83-35.972-90.416-37.709-126.389-3.879
			c-23.199,21.817-33.043,54.328-25.842,85.35c-71.824-3.601-138.743-37.525-184.101-93.331
			c-23.71,40.816-11.599,93.032,27.656,119.246c-14.216-0.421-28.122-4.256-40.544-11.181c0,0.366,0,0.749,0,1.132
			c0.012,42.522,29.985,79.146,71.666,87.566c-13.151,3.587-26.949,4.111-40.335,1.533c11.702,36.389,45.239,61.317,83.456,62.035
			c-31.632,24.86-70.707,38.355-110.938,38.315c-7.107-0.014-14.208-0.444-21.264-1.289c40.851,26.215,88.383,40.121,136.922,40.056"/>
	</symbol>


	<symbol viewBox="0 0 600 600" id="medium">
		<title>Medium</title>
		<path d="M498.784,192.671c-0.078-0.062-0.14-0.14-0.234-0.187l-0.136-0.068l-120.665-60.333c-0.816-0.408-1.673-0.686-2.539-0.908
			c-1.09-0.279-2.2-0.45-3.316-0.45c-4.621,0-9.221,2.321-11.711,6.366L290.713,249.98l87.179,141.666l121.261-197.047
			C499.557,193.942,499.364,193.129,498.784,192.671z"/>
		<polygon points="252.45,224.267 252.45,352.767 366.672,409.878"/>
		<path d="M383.832,418.459l94.021,47.01c12.234,6.117,22.153,1.835,22.153-9.564V229.677L383.832,418.459z"/>
		<path d="M232.623,192.854l-117.848-58.925c-2.129-1.064-4.155-1.567-5.988-1.567c-5.161,0-8.78,3.993-8.78,10.695v254.438
			c0,6.811,4.984,14.876,11.076,17.922l103.797,51.898c2.661,1.331,5.194,1.96,7.485,1.96c6.451,0,10.976-4.991,10.976-13.368
			V194.013C233.339,193.522,233.062,193.074,232.623,192.854z"/>
	</symbol>


	<symbol viewBox="0 0 600 600" id="github">
		<title>GitHub</title>
		<path d="M299.987,102.939C189.553,102.939,100,192.481,100,302.95
			c0,88.355,57.3,163.317,136.782,189.767c10,1.834,13.65-4.34,13.65-9.64c0-4.748-0.173-17.325-0.27-34.016
			c-55.633,12.086-67.372-26.81-67.372-26.81c-9.094-23.104-22.206-29.256-22.206-29.256c-18.159-12.409,1.374-12.158,1.374-12.158
			c20.071,1.414,30.634,20.611,30.634,20.611c17.841,30.563,46.809,21.738,58.205,16.618c1.817-12.925,6.984-21.738,12.698-26.737
			c-44.411-5.048-91.1-22.206-91.1-98.846c0-21.834,7.793-39.687,20.586-53.668c-2.056-5.06-8.92-25.394,1.961-52.93
			c0,0,16.792-5.378,54.998,20.503c15.952-4.436,33.062-6.655,50.07-6.732c16.984,0.077,34.094,2.296,50.07,6.732
			c38.183-25.88,54.944-20.503,54.944-20.503c10.911,27.535,4.047,47.87,1.99,52.93c12.818,13.981,20.558,31.834,20.558,53.668
			c0,76.832-46.761,93.739-91.316,98.69c7.181,6.174,13.578,18.381,13.578,37.037c0,26.738-0.246,48.308-0.246,54.866
			c0,5.348,3.602,11.571,13.752,9.617C442.747,466.195,500,391.282,500,302.95C500,192.481,410.446,102.939,299.987,102.939z"/>
	</symbol>




</svg>